<mxfile host="Electron" modified="2024-01-15T06:41:44.766Z" agent="Mozilla/5.0 (Windows NT 10.0; Win64; x64) AppleWebKit/537.36 (KHTML, like Gecko) draw.io/22.1.18 Chrome/120.0.6099.199 Electron/28.1.2 Safari/537.36" etag="S2894xo8CEkTlxe0PBuO" version="22.1.18" type="device">
  <diagram id="R2lEEEUBdFMjLlhIrx00" name="Page-1">
    <mxGraphModel dx="1847" dy="445" grid="1" gridSize="10" guides="1" tooltips="1" connect="1" arrows="0" fold="1" page="1" pageScale="1" pageWidth="1169" pageHeight="827" background="none" math="0" shadow="0" extFonts="Permanent Marker^https://fonts.googleapis.com/css?family=Permanent+Marker">
      <root>
        <object label="" id="0">
          <mxCell />
        </object>
        <mxCell id="1" parent="0" />
        <mxCell id="-N6aTKsf7TU79jUoc55K-59" value="&lt;b&gt;users&lt;/b&gt;" style="shape=table;startSize=30;container=1;collapsible=1;childLayout=tableLayout;fixedRows=1;rowLines=0;fontStyle=0;align=center;resizeLast=1;fontSize=12;fontFamily=Helvetica;html=1;whiteSpace=wrap;labelBorderColor=none;labelBackgroundColor=none;shadow=0;spacing=2;swimlaneFillColor=none;rounded=1;swimlaneLine=1;fillColor=none;strokeColor=default;" parent="1" vertex="1">
          <mxGeometry x="350" y="267" width="360" height="270" as="geometry" />
        </mxCell>
        <mxCell id="-N6aTKsf7TU79jUoc55K-60" value="" style="shape=tableRow;horizontal=0;startSize=0;swimlaneHead=0;swimlaneBody=0;fillColor=none;collapsible=0;dropTarget=0;points=[[0,0.5],[1,0.5]];portConstraint=eastwest;top=0;left=0;right=0;bottom=1;fontSize=12;fontFamily=Helvetica;html=1;whiteSpace=wrap;labelBorderColor=none;labelBackgroundColor=none;swimlaneFillColor=default;shadow=0;swimlaneLine=1;rounded=1;strokeColor=default;" parent="-N6aTKsf7TU79jUoc55K-59" vertex="1">
          <mxGeometry y="30" width="360" height="30" as="geometry" />
        </mxCell>
        <mxCell id="-N6aTKsf7TU79jUoc55K-61" value="PK" style="shape=partialRectangle;connectable=0;fillColor=none;top=0;left=0;bottom=0;right=0;fontStyle=1;overflow=hidden;fontSize=12;fontFamily=Helvetica;html=1;whiteSpace=wrap;labelBorderColor=none;labelBackgroundColor=none;swimlaneFillColor=default;shadow=0;swimlaneLine=1;rounded=1;strokeColor=default;" parent="-N6aTKsf7TU79jUoc55K-60" vertex="1">
          <mxGeometry width="40.000000000000455" height="30" as="geometry">
            <mxRectangle width="40.000000000000455" height="30" as="alternateBounds" />
          </mxGeometry>
        </mxCell>
        <mxCell id="-N6aTKsf7TU79jUoc55K-62" value="id" style="shape=partialRectangle;connectable=0;fillColor=none;top=0;left=0;bottom=0;right=0;align=left;spacingLeft=6;fontStyle=5;overflow=hidden;fontSize=12;fontFamily=Helvetica;html=1;whiteSpace=wrap;labelBorderColor=none;labelBackgroundColor=none;swimlaneFillColor=default;shadow=0;swimlaneLine=1;rounded=1;strokeColor=default;" parent="-N6aTKsf7TU79jUoc55K-60" vertex="1">
          <mxGeometry x="40.000000000000455" width="159.99999999999955" height="30" as="geometry">
            <mxRectangle width="159.99999999999955" height="30" as="alternateBounds" />
          </mxGeometry>
        </mxCell>
        <mxCell id="-N6aTKsf7TU79jUoc55K-72" value="UUid:I:U" style="shape=partialRectangle;connectable=0;fillColor=none;top=0;left=0;bottom=0;right=0;align=left;spacingLeft=6;fontStyle=5;overflow=hidden;fontSize=12;fontFamily=Helvetica;html=1;whiteSpace=wrap;labelBorderColor=none;labelBackgroundColor=none;swimlaneFillColor=default;shadow=0;swimlaneLine=1;rounded=1;strokeColor=default;" parent="-N6aTKsf7TU79jUoc55K-60" vertex="1">
          <mxGeometry x="200" width="160" height="30" as="geometry">
            <mxRectangle width="160" height="30" as="alternateBounds" />
          </mxGeometry>
        </mxCell>
        <mxCell id="-N6aTKsf7TU79jUoc55K-63" value="" style="shape=tableRow;horizontal=0;startSize=0;swimlaneHead=0;swimlaneBody=0;fillColor=none;collapsible=0;dropTarget=0;points=[[0,0.5],[1,0.5]];portConstraint=eastwest;top=0;left=0;right=0;bottom=0;fontSize=12;fontFamily=Helvetica;html=1;whiteSpace=wrap;labelBorderColor=none;labelBackgroundColor=none;swimlaneFillColor=default;shadow=0;swimlaneLine=1;rounded=1;strokeColor=default;" parent="-N6aTKsf7TU79jUoc55K-59" vertex="1">
          <mxGeometry y="60" width="360" height="30" as="geometry" />
        </mxCell>
        <mxCell id="-N6aTKsf7TU79jUoc55K-64" value="" style="shape=partialRectangle;connectable=0;fillColor=none;top=0;left=0;bottom=0;right=0;editable=1;overflow=hidden;fontSize=12;fontFamily=Helvetica;html=1;whiteSpace=wrap;labelBorderColor=none;labelBackgroundColor=none;swimlaneFillColor=default;shadow=0;swimlaneLine=1;rounded=1;strokeColor=default;" parent="-N6aTKsf7TU79jUoc55K-63" vertex="1">
          <mxGeometry width="40.000000000000455" height="30" as="geometry">
            <mxRectangle width="40.000000000000455" height="30" as="alternateBounds" />
          </mxGeometry>
        </mxCell>
        <mxCell id="-N6aTKsf7TU79jUoc55K-65" value="email" style="shape=partialRectangle;connectable=0;fillColor=none;top=0;left=0;bottom=0;right=0;align=left;spacingLeft=6;overflow=hidden;fontSize=12;fontFamily=Helvetica;html=1;whiteSpace=wrap;labelBorderColor=none;labelBackgroundColor=none;swimlaneFillColor=default;shadow=0;swimlaneLine=1;rounded=1;strokeColor=default;" parent="-N6aTKsf7TU79jUoc55K-63" vertex="1">
          <mxGeometry x="40.000000000000455" width="159.99999999999955" height="30" as="geometry">
            <mxRectangle width="159.99999999999955" height="30" as="alternateBounds" />
          </mxGeometry>
        </mxCell>
        <mxCell id="-N6aTKsf7TU79jUoc55K-73" value="Text:U" style="shape=partialRectangle;connectable=0;fillColor=none;top=0;left=0;bottom=0;right=0;align=left;spacingLeft=6;overflow=hidden;fontSize=12;fontFamily=Helvetica;html=1;whiteSpace=wrap;labelBorderColor=none;labelBackgroundColor=none;swimlaneFillColor=default;shadow=0;swimlaneLine=1;rounded=1;strokeColor=default;" parent="-N6aTKsf7TU79jUoc55K-63" vertex="1">
          <mxGeometry x="200" width="160" height="30" as="geometry">
            <mxRectangle width="160" height="30" as="alternateBounds" />
          </mxGeometry>
        </mxCell>
        <mxCell id="Ojf86DlffNjO57nRf6cp-57" style="shape=tableRow;horizontal=0;startSize=0;swimlaneHead=0;swimlaneBody=0;fillColor=none;collapsible=0;dropTarget=0;points=[[0,0.5],[1,0.5]];portConstraint=eastwest;top=0;left=0;right=0;bottom=0;fontSize=12;fontFamily=Helvetica;html=1;whiteSpace=wrap;labelBorderColor=none;labelBackgroundColor=none;swimlaneFillColor=default;shadow=0;swimlaneLine=1;rounded=1;strokeColor=default;" parent="-N6aTKsf7TU79jUoc55K-59" vertex="1">
          <mxGeometry y="90" width="360" height="30" as="geometry" />
        </mxCell>
        <mxCell id="Ojf86DlffNjO57nRf6cp-58" style="shape=partialRectangle;connectable=0;fillColor=none;top=0;left=0;bottom=0;right=0;editable=1;overflow=hidden;fontSize=12;fontFamily=Helvetica;html=1;whiteSpace=wrap;labelBorderColor=none;labelBackgroundColor=none;swimlaneFillColor=default;shadow=0;swimlaneLine=1;rounded=1;strokeColor=default;" parent="Ojf86DlffNjO57nRf6cp-57" vertex="1">
          <mxGeometry width="40.000000000000455" height="30" as="geometry">
            <mxRectangle width="40.000000000000455" height="30" as="alternateBounds" />
          </mxGeometry>
        </mxCell>
        <mxCell id="Ojf86DlffNjO57nRf6cp-59" value="password_hash" style="shape=partialRectangle;connectable=0;fillColor=none;top=0;left=0;bottom=0;right=0;align=left;spacingLeft=6;overflow=hidden;fontSize=12;fontFamily=Helvetica;html=1;whiteSpace=wrap;labelBorderColor=none;labelBackgroundColor=none;swimlaneFillColor=default;shadow=0;swimlaneLine=1;rounded=1;strokeColor=default;" parent="Ojf86DlffNjO57nRf6cp-57" vertex="1">
          <mxGeometry x="40.000000000000455" width="159.99999999999955" height="30" as="geometry">
            <mxRectangle width="159.99999999999955" height="30" as="alternateBounds" />
          </mxGeometry>
        </mxCell>
        <mxCell id="Ojf86DlffNjO57nRf6cp-60" value="Text" style="shape=partialRectangle;connectable=0;fillColor=none;top=0;left=0;bottom=0;right=0;align=left;spacingLeft=6;overflow=hidden;fontSize=12;fontFamily=Helvetica;html=1;whiteSpace=wrap;labelBorderColor=none;labelBackgroundColor=none;swimlaneFillColor=default;shadow=0;swimlaneLine=1;rounded=1;strokeColor=default;" parent="Ojf86DlffNjO57nRf6cp-57" vertex="1">
          <mxGeometry x="200" width="160" height="30" as="geometry">
            <mxRectangle width="160" height="30" as="alternateBounds" />
          </mxGeometry>
        </mxCell>
        <mxCell id="-N6aTKsf7TU79jUoc55K-66" value="" style="shape=tableRow;horizontal=0;startSize=0;swimlaneHead=0;swimlaneBody=0;fillColor=none;collapsible=0;dropTarget=0;points=[[0,0.5],[1,0.5]];portConstraint=eastwest;top=0;left=0;right=0;bottom=0;fontSize=12;fontFamily=Helvetica;html=1;whiteSpace=wrap;labelBorderColor=none;labelBackgroundColor=none;swimlaneFillColor=default;shadow=0;swimlaneLine=1;rounded=1;strokeColor=default;" parent="-N6aTKsf7TU79jUoc55K-59" vertex="1">
          <mxGeometry y="120" width="360" height="30" as="geometry" />
        </mxCell>
        <mxCell id="-N6aTKsf7TU79jUoc55K-67" value="" style="shape=partialRectangle;connectable=0;fillColor=none;top=0;left=0;bottom=0;right=0;editable=1;overflow=hidden;fontSize=12;fontFamily=Helvetica;html=1;whiteSpace=wrap;labelBorderColor=none;labelBackgroundColor=none;swimlaneFillColor=default;shadow=0;swimlaneLine=1;rounded=1;strokeColor=default;" parent="-N6aTKsf7TU79jUoc55K-66" vertex="1">
          <mxGeometry width="40.000000000000455" height="30" as="geometry">
            <mxRectangle width="40.000000000000455" height="30" as="alternateBounds" />
          </mxGeometry>
        </mxCell>
        <mxCell id="-N6aTKsf7TU79jUoc55K-68" value="password_salt" style="shape=partialRectangle;connectable=0;fillColor=none;top=0;left=0;bottom=0;right=0;align=left;spacingLeft=6;overflow=hidden;fontSize=12;fontFamily=Helvetica;html=1;whiteSpace=wrap;labelBorderColor=none;labelBackgroundColor=none;swimlaneFillColor=default;shadow=0;swimlaneLine=1;rounded=1;strokeColor=default;" parent="-N6aTKsf7TU79jUoc55K-66" vertex="1">
          <mxGeometry x="40.000000000000455" width="159.99999999999955" height="30" as="geometry">
            <mxRectangle width="159.99999999999955" height="30" as="alternateBounds" />
          </mxGeometry>
        </mxCell>
        <mxCell id="-N6aTKsf7TU79jUoc55K-74" value="Text" style="shape=partialRectangle;connectable=0;fillColor=none;top=0;left=0;bottom=0;right=0;align=left;spacingLeft=6;overflow=hidden;fontSize=12;fontFamily=Helvetica;html=1;whiteSpace=wrap;labelBorderColor=none;labelBackgroundColor=none;swimlaneFillColor=default;shadow=0;swimlaneLine=1;rounded=1;strokeColor=default;" parent="-N6aTKsf7TU79jUoc55K-66" vertex="1">
          <mxGeometry x="200" width="160" height="30" as="geometry">
            <mxRectangle width="160" height="30" as="alternateBounds" />
          </mxGeometry>
        </mxCell>
        <mxCell id="JzsrkWfeZ8PMInFzCCbA-57" style="shape=tableRow;horizontal=0;startSize=0;swimlaneHead=0;swimlaneBody=0;fillColor=none;collapsible=0;dropTarget=0;points=[[0,0.5],[1,0.5]];portConstraint=eastwest;top=0;left=0;right=0;bottom=0;fontSize=12;fontFamily=Helvetica;html=1;whiteSpace=wrap;labelBorderColor=none;labelBackgroundColor=none;swimlaneFillColor=default;shadow=0;swimlaneLine=1;rounded=1;strokeColor=default;" parent="-N6aTKsf7TU79jUoc55K-59" vertex="1">
          <mxGeometry y="150" width="360" height="30" as="geometry" />
        </mxCell>
        <mxCell id="JzsrkWfeZ8PMInFzCCbA-58" style="shape=partialRectangle;connectable=0;fillColor=none;top=0;left=0;bottom=0;right=0;editable=1;overflow=hidden;fontSize=12;fontFamily=Helvetica;html=1;whiteSpace=wrap;labelBorderColor=none;labelBackgroundColor=none;swimlaneFillColor=default;shadow=0;swimlaneLine=1;rounded=1;strokeColor=default;" parent="JzsrkWfeZ8PMInFzCCbA-57" vertex="1">
          <mxGeometry width="40.000000000000455" height="30" as="geometry">
            <mxRectangle width="40.000000000000455" height="30" as="alternateBounds" />
          </mxGeometry>
        </mxCell>
        <mxCell id="JzsrkWfeZ8PMInFzCCbA-59" value="default_workspace_id" style="shape=partialRectangle;connectable=0;fillColor=none;top=0;left=0;bottom=0;right=0;align=left;spacingLeft=6;overflow=hidden;fontSize=12;fontFamily=Helvetica;html=1;whiteSpace=wrap;labelBorderColor=none;labelBackgroundColor=none;swimlaneFillColor=default;shadow=0;swimlaneLine=1;rounded=1;strokeColor=default;" parent="JzsrkWfeZ8PMInFzCCbA-57" vertex="1">
          <mxGeometry x="40.000000000000455" width="159.99999999999955" height="30" as="geometry">
            <mxRectangle width="159.99999999999955" height="30" as="alternateBounds" />
          </mxGeometry>
        </mxCell>
        <mxCell id="JzsrkWfeZ8PMInFzCCbA-60" value="UUid" style="shape=partialRectangle;connectable=0;fillColor=none;top=0;left=0;bottom=0;right=0;align=left;spacingLeft=6;overflow=hidden;fontSize=12;fontFamily=Helvetica;html=1;whiteSpace=wrap;labelBorderColor=none;labelBackgroundColor=none;swimlaneFillColor=default;shadow=0;swimlaneLine=1;rounded=1;strokeColor=default;" parent="JzsrkWfeZ8PMInFzCCbA-57" vertex="1">
          <mxGeometry x="200" width="160" height="30" as="geometry">
            <mxRectangle width="160" height="30" as="alternateBounds" />
          </mxGeometry>
        </mxCell>
        <mxCell id="NcsJ6wFpwBGaV7UIKiL5-57" style="shape=tableRow;horizontal=0;startSize=0;swimlaneHead=0;swimlaneBody=0;fillColor=none;collapsible=0;dropTarget=0;points=[[0,0.5],[1,0.5]];portConstraint=eastwest;top=0;left=0;right=0;bottom=0;fontSize=12;fontFamily=Helvetica;html=1;whiteSpace=wrap;labelBorderColor=none;labelBackgroundColor=none;swimlaneFillColor=default;shadow=0;swimlaneLine=1;rounded=1;strokeColor=default;" parent="-N6aTKsf7TU79jUoc55K-59" vertex="1">
          <mxGeometry y="180" width="360" height="30" as="geometry" />
        </mxCell>
        <mxCell id="NcsJ6wFpwBGaV7UIKiL5-58" style="shape=partialRectangle;connectable=0;fillColor=none;top=0;left=0;bottom=0;right=0;editable=1;overflow=hidden;fontSize=12;fontFamily=Helvetica;html=1;whiteSpace=wrap;labelBorderColor=none;labelBackgroundColor=none;swimlaneFillColor=default;shadow=0;swimlaneLine=1;rounded=1;strokeColor=default;" parent="NcsJ6wFpwBGaV7UIKiL5-57" vertex="1">
          <mxGeometry width="40.000000000000455" height="30" as="geometry">
            <mxRectangle width="40.000000000000455" height="30" as="alternateBounds" />
          </mxGeometry>
        </mxCell>
        <mxCell id="NcsJ6wFpwBGaV7UIKiL5-59" value="default_workspace_name" style="shape=partialRectangle;connectable=0;fillColor=none;top=0;left=0;bottom=0;right=0;align=left;spacingLeft=6;overflow=hidden;fontSize=12;fontFamily=Helvetica;html=1;whiteSpace=wrap;labelBorderColor=none;labelBackgroundColor=none;swimlaneFillColor=default;shadow=0;swimlaneLine=1;rounded=1;strokeColor=default;" parent="NcsJ6wFpwBGaV7UIKiL5-57" vertex="1">
          <mxGeometry x="40.000000000000455" width="159.99999999999955" height="30" as="geometry">
            <mxRectangle width="159.99999999999955" height="30" as="alternateBounds" />
          </mxGeometry>
        </mxCell>
        <mxCell id="NcsJ6wFpwBGaV7UIKiL5-60" value="Text" style="shape=partialRectangle;connectable=0;fillColor=none;top=0;left=0;bottom=0;right=0;align=left;spacingLeft=6;overflow=hidden;fontSize=12;fontFamily=Helvetica;html=1;whiteSpace=wrap;labelBorderColor=none;labelBackgroundColor=none;swimlaneFillColor=default;shadow=0;swimlaneLine=1;rounded=1;strokeColor=default;" parent="NcsJ6wFpwBGaV7UIKiL5-57" vertex="1">
          <mxGeometry x="200" width="160" height="30" as="geometry">
            <mxRectangle width="160" height="30" as="alternateBounds" />
          </mxGeometry>
        </mxCell>
        <mxCell id="-N6aTKsf7TU79jUoc55K-69" value="" style="shape=tableRow;horizontal=0;startSize=0;swimlaneHead=0;swimlaneBody=0;fillColor=none;collapsible=0;dropTarget=0;points=[[0,0.5],[1,0.5]];portConstraint=eastwest;top=0;left=0;right=0;bottom=0;fontSize=12;fontFamily=Helvetica;html=1;whiteSpace=wrap;labelBorderColor=none;labelBackgroundColor=none;swimlaneFillColor=default;shadow=0;swimlaneLine=1;rounded=1;strokeColor=default;" parent="-N6aTKsf7TU79jUoc55K-59" vertex="1">
          <mxGeometry y="210" width="360" height="30" as="geometry" />
        </mxCell>
        <mxCell id="-N6aTKsf7TU79jUoc55K-70" value="" style="shape=partialRectangle;connectable=0;fillColor=none;top=0;left=0;bottom=0;right=0;editable=1;overflow=hidden;fontSize=12;fontFamily=Helvetica;html=1;whiteSpace=wrap;labelBorderColor=none;labelBackgroundColor=none;swimlaneFillColor=default;shadow=0;swimlaneLine=1;rounded=1;strokeColor=default;" parent="-N6aTKsf7TU79jUoc55K-69" vertex="1">
          <mxGeometry width="40.000000000000455" height="30" as="geometry">
            <mxRectangle width="40.000000000000455" height="30" as="alternateBounds" />
          </mxGeometry>
        </mxCell>
        <mxCell id="-N6aTKsf7TU79jUoc55K-71" value="is_email_verified" style="shape=partialRectangle;connectable=0;fillColor=none;top=0;left=0;bottom=0;right=0;align=left;spacingLeft=6;overflow=hidden;fontSize=12;fontFamily=Helvetica;html=1;whiteSpace=wrap;labelBorderColor=none;labelBackgroundColor=none;swimlaneFillColor=default;shadow=0;swimlaneLine=1;rounded=1;strokeColor=default;" parent="-N6aTKsf7TU79jUoc55K-69" vertex="1">
          <mxGeometry x="40.000000000000455" width="159.99999999999955" height="30" as="geometry">
            <mxRectangle width="159.99999999999955" height="30" as="alternateBounds" />
          </mxGeometry>
        </mxCell>
        <mxCell id="-N6aTKsf7TU79jUoc55K-75" value="Boolean" style="shape=partialRectangle;connectable=0;fillColor=none;top=0;left=0;bottom=0;right=0;align=left;spacingLeft=6;overflow=hidden;fontSize=12;fontFamily=Helvetica;html=1;whiteSpace=wrap;labelBorderColor=none;labelBackgroundColor=none;swimlaneFillColor=default;shadow=0;swimlaneLine=1;rounded=1;strokeColor=default;" parent="-N6aTKsf7TU79jUoc55K-69" vertex="1">
          <mxGeometry x="200" width="160" height="30" as="geometry">
            <mxRectangle width="160" height="30" as="alternateBounds" />
          </mxGeometry>
        </mxCell>
        <mxCell id="54" style="shape=tableRow;horizontal=0;startSize=0;swimlaneHead=0;swimlaneBody=0;fillColor=none;collapsible=0;dropTarget=0;points=[[0,0.5],[1,0.5]];portConstraint=eastwest;top=0;left=0;right=0;bottom=0;fontSize=12;fontFamily=Helvetica;html=1;whiteSpace=wrap;labelBorderColor=none;labelBackgroundColor=none;swimlaneFillColor=default;shadow=0;swimlaneLine=1;rounded=1;strokeColor=default;" parent="-N6aTKsf7TU79jUoc55K-59" vertex="1">
          <mxGeometry y="240" width="360" height="30" as="geometry" />
        </mxCell>
        <mxCell id="55" value="C" style="shape=partialRectangle;connectable=0;fillColor=none;top=0;left=0;bottom=0;right=0;editable=1;overflow=hidden;fontSize=12;fontFamily=Helvetica;html=1;whiteSpace=wrap;labelBorderColor=none;labelBackgroundColor=none;swimlaneFillColor=default;shadow=0;swimlaneLine=1;perimeterSpacing=0;rounded=1;strokeColor=default;" parent="54" vertex="1">
          <mxGeometry width="40.000000000000455" height="30" as="geometry">
            <mxRectangle width="40.000000000000455" height="30" as="alternateBounds" />
          </mxGeometry>
        </mxCell>
        <mxCell id="56" value="users_email_check" style="shape=partialRectangle;connectable=0;fillColor=none;top=0;left=0;bottom=0;right=0;align=left;spacingLeft=6;overflow=hidden;fontSize=12;fontFamily=Helvetica;html=1;whiteSpace=wrap;labelBorderColor=none;labelBackgroundColor=none;swimlaneFillColor=default;shadow=0;swimlaneLine=1;perimeterSpacing=0;rounded=1;strokeColor=default;" parent="54" vertex="1">
          <mxGeometry x="40.000000000000455" width="159.99999999999955" height="30" as="geometry">
            <mxRectangle width="159.99999999999955" height="30" as="alternateBounds" />
          </mxGeometry>
        </mxCell>
        <mxCell id="57" value="3 &amp;lt;= Length(email) &amp;lt;= 80" style="shape=partialRectangle;connectable=0;fillColor=none;top=0;left=0;bottom=0;right=0;align=left;spacingLeft=6;overflow=hidden;fontSize=12;fontFamily=Helvetica;html=1;whiteSpace=wrap;labelBorderColor=none;labelBackgroundColor=none;swimlaneFillColor=default;shadow=0;swimlaneLine=1;perimeterSpacing=0;rounded=1;strokeColor=default;" parent="54" vertex="1">
          <mxGeometry x="200" width="160" height="30" as="geometry">
            <mxRectangle width="160" height="30" as="alternateBounds" />
          </mxGeometry>
        </mxCell>
        <mxCell id="-N6aTKsf7TU79jUoc55K-195" value="&lt;b&gt;user_profiles&lt;/b&gt;" style="shape=table;startSize=30;container=1;collapsible=1;childLayout=tableLayout;fixedRows=1;rowLines=0;fontStyle=0;align=center;resizeLast=1;fontSize=12;fontFamily=Helvetica;html=1;whiteSpace=wrap;labelBorderColor=none;labelBackgroundColor=none;shadow=0;spacing=2;swimlaneFillColor=none;rounded=1;swimlaneLine=1;fillColor=none;strokeColor=default;" parent="1" vertex="1">
          <mxGeometry x="780" y="340" width="360" height="180" as="geometry" />
        </mxCell>
        <mxCell id="-N6aTKsf7TU79jUoc55K-196" value="" style="shape=tableRow;horizontal=0;startSize=0;swimlaneHead=0;swimlaneBody=0;fillColor=none;collapsible=0;dropTarget=0;points=[[0,0.5],[1,0.5]];portConstraint=eastwest;top=0;left=0;right=0;bottom=1;fontSize=12;fontFamily=Helvetica;html=1;whiteSpace=wrap;labelBorderColor=none;labelBackgroundColor=none;swimlaneFillColor=default;shadow=0;swimlaneLine=1;rounded=1;strokeColor=default;" parent="-N6aTKsf7TU79jUoc55K-195" vertex="1">
          <mxGeometry y="30" width="360" height="30" as="geometry" />
        </mxCell>
        <mxCell id="-N6aTKsf7TU79jUoc55K-197" value="PK" style="shape=partialRectangle;connectable=0;fillColor=none;top=0;left=0;bottom=0;right=0;fontStyle=1;overflow=hidden;fontSize=12;fontFamily=Helvetica;html=1;whiteSpace=wrap;labelBorderColor=none;labelBackgroundColor=none;swimlaneFillColor=default;shadow=0;swimlaneLine=1;rounded=1;strokeColor=default;" parent="-N6aTKsf7TU79jUoc55K-196" vertex="1">
          <mxGeometry width="30" height="30" as="geometry">
            <mxRectangle width="30" height="30" as="alternateBounds" />
          </mxGeometry>
        </mxCell>
        <mxCell id="-N6aTKsf7TU79jUoc55K-198" value="id" style="shape=partialRectangle;connectable=0;fillColor=none;top=0;left=0;bottom=0;right=0;align=left;spacingLeft=6;fontStyle=5;overflow=hidden;fontSize=12;fontFamily=Helvetica;html=1;whiteSpace=wrap;labelBorderColor=none;labelBackgroundColor=none;swimlaneFillColor=default;shadow=0;swimlaneLine=1;rounded=1;strokeColor=default;" parent="-N6aTKsf7TU79jUoc55K-196" vertex="1">
          <mxGeometry x="30" width="140" height="30" as="geometry">
            <mxRectangle width="140" height="30" as="alternateBounds" />
          </mxGeometry>
        </mxCell>
        <mxCell id="-N6aTKsf7TU79jUoc55K-199" value="UUid:I:U" style="shape=partialRectangle;connectable=0;fillColor=none;top=0;left=0;bottom=0;right=0;align=left;spacingLeft=6;fontStyle=5;overflow=hidden;fontSize=12;fontFamily=Helvetica;html=1;whiteSpace=wrap;labelBorderColor=none;labelBackgroundColor=none;swimlaneFillColor=default;shadow=0;swimlaneLine=1;rounded=1;strokeColor=default;" parent="-N6aTKsf7TU79jUoc55K-196" vertex="1">
          <mxGeometry x="170" width="190" height="30" as="geometry">
            <mxRectangle width="190" height="30" as="alternateBounds" />
          </mxGeometry>
        </mxCell>
        <mxCell id="-N6aTKsf7TU79jUoc55K-200" value="" style="shape=tableRow;horizontal=0;startSize=0;swimlaneHead=0;swimlaneBody=0;fillColor=none;collapsible=0;dropTarget=0;points=[[0,0.5],[1,0.5]];portConstraint=eastwest;top=0;left=0;right=0;bottom=0;fontSize=12;fontFamily=Helvetica;html=1;whiteSpace=wrap;labelBorderColor=none;labelBackgroundColor=none;swimlaneFillColor=default;shadow=0;swimlaneLine=1;rounded=1;strokeColor=default;" parent="-N6aTKsf7TU79jUoc55K-195" vertex="1">
          <mxGeometry y="60" width="360" height="30" as="geometry" />
        </mxCell>
        <mxCell id="-N6aTKsf7TU79jUoc55K-201" value="FK" style="shape=partialRectangle;connectable=0;fillColor=none;top=0;left=0;bottom=0;right=0;editable=1;overflow=hidden;fontSize=12;fontFamily=Helvetica;html=1;whiteSpace=wrap;labelBorderColor=none;labelBackgroundColor=none;swimlaneFillColor=default;shadow=0;swimlaneLine=1;rounded=1;strokeColor=default;" parent="-N6aTKsf7TU79jUoc55K-200" vertex="1">
          <mxGeometry width="30" height="30" as="geometry">
            <mxRectangle width="30" height="30" as="alternateBounds" />
          </mxGeometry>
        </mxCell>
        <mxCell id="-N6aTKsf7TU79jUoc55K-202" value="user_id" style="shape=partialRectangle;connectable=0;fillColor=none;top=0;left=0;bottom=0;right=0;align=left;spacingLeft=6;overflow=hidden;fontSize=12;fontFamily=Helvetica;html=1;whiteSpace=wrap;labelBorderColor=none;labelBackgroundColor=none;swimlaneFillColor=default;shadow=0;swimlaneLine=1;rounded=1;strokeColor=default;" parent="-N6aTKsf7TU79jUoc55K-200" vertex="1">
          <mxGeometry x="30" width="140" height="30" as="geometry">
            <mxRectangle width="140" height="30" as="alternateBounds" />
          </mxGeometry>
        </mxCell>
        <mxCell id="-N6aTKsf7TU79jUoc55K-203" value="UUid:U" style="shape=partialRectangle;connectable=0;fillColor=none;top=0;left=0;bottom=0;right=0;align=left;spacingLeft=6;overflow=hidden;fontSize=12;fontFamily=Helvetica;html=1;whiteSpace=wrap;labelBorderColor=none;labelBackgroundColor=none;swimlaneFillColor=default;shadow=0;swimlaneLine=1;rounded=1;strokeColor=default;" parent="-N6aTKsf7TU79jUoc55K-200" vertex="1">
          <mxGeometry x="170" width="190" height="30" as="geometry">
            <mxRectangle width="190" height="30" as="alternateBounds" />
          </mxGeometry>
        </mxCell>
        <mxCell id="-N6aTKsf7TU79jUoc55K-204" value="" style="shape=tableRow;horizontal=0;startSize=0;swimlaneHead=0;swimlaneBody=0;fillColor=none;collapsible=0;dropTarget=0;points=[[0,0.5],[1,0.5]];portConstraint=eastwest;top=0;left=0;right=0;bottom=0;fontSize=12;fontFamily=Helvetica;html=1;whiteSpace=wrap;labelBorderColor=none;labelBackgroundColor=none;swimlaneFillColor=default;shadow=0;swimlaneLine=1;rounded=1;strokeColor=default;" parent="-N6aTKsf7TU79jUoc55K-195" vertex="1">
          <mxGeometry y="90" width="360" height="30" as="geometry" />
        </mxCell>
        <mxCell id="-N6aTKsf7TU79jUoc55K-205" value="" style="shape=partialRectangle;connectable=0;fillColor=none;top=0;left=0;bottom=0;right=0;editable=1;overflow=hidden;fontSize=12;fontFamily=Helvetica;html=1;whiteSpace=wrap;labelBorderColor=none;labelBackgroundColor=none;swimlaneFillColor=default;shadow=0;swimlaneLine=1;rounded=1;strokeColor=default;" parent="-N6aTKsf7TU79jUoc55K-204" vertex="1">
          <mxGeometry width="30" height="30" as="geometry">
            <mxRectangle width="30" height="30" as="alternateBounds" />
          </mxGeometry>
        </mxCell>
        <mxCell id="-N6aTKsf7TU79jUoc55K-206" value="display_name" style="shape=partialRectangle;connectable=0;fillColor=none;top=0;left=0;bottom=0;right=0;align=left;spacingLeft=6;overflow=hidden;fontSize=12;fontFamily=Helvetica;html=1;whiteSpace=wrap;labelBorderColor=none;labelBackgroundColor=none;swimlaneFillColor=default;shadow=0;swimlaneLine=1;rounded=1;strokeColor=default;" parent="-N6aTKsf7TU79jUoc55K-204" vertex="1">
          <mxGeometry x="30" width="140" height="30" as="geometry">
            <mxRectangle width="140" height="30" as="alternateBounds" />
          </mxGeometry>
        </mxCell>
        <mxCell id="-N6aTKsf7TU79jUoc55K-207" value="Text" style="shape=partialRectangle;connectable=0;fillColor=none;top=0;left=0;bottom=0;right=0;align=left;spacingLeft=6;overflow=hidden;fontSize=12;fontFamily=Helvetica;html=1;whiteSpace=wrap;labelBorderColor=none;labelBackgroundColor=none;swimlaneFillColor=default;shadow=0;swimlaneLine=1;rounded=1;strokeColor=default;" parent="-N6aTKsf7TU79jUoc55K-204" vertex="1">
          <mxGeometry x="170" width="190" height="30" as="geometry">
            <mxRectangle width="190" height="30" as="alternateBounds" />
          </mxGeometry>
        </mxCell>
        <mxCell id="-N6aTKsf7TU79jUoc55K-208" value="" style="shape=tableRow;horizontal=0;startSize=0;swimlaneHead=0;swimlaneBody=0;fillColor=none;collapsible=0;dropTarget=0;points=[[0,0.5],[1,0.5]];portConstraint=eastwest;top=0;left=0;right=0;bottom=0;fontSize=12;fontFamily=Helvetica;html=1;whiteSpace=wrap;labelBorderColor=none;labelBackgroundColor=none;swimlaneFillColor=default;shadow=0;swimlaneLine=1;rounded=1;strokeColor=default;" parent="-N6aTKsf7TU79jUoc55K-195" vertex="1">
          <mxGeometry y="120" width="360" height="30" as="geometry" />
        </mxCell>
        <mxCell id="-N6aTKsf7TU79jUoc55K-209" value="" style="shape=partialRectangle;connectable=0;fillColor=none;top=0;left=0;bottom=0;right=0;editable=1;overflow=hidden;fontSize=12;fontFamily=Helvetica;html=1;whiteSpace=wrap;labelBorderColor=none;labelBackgroundColor=none;swimlaneFillColor=default;shadow=0;swimlaneLine=1;rounded=1;strokeColor=default;" parent="-N6aTKsf7TU79jUoc55K-208" vertex="1">
          <mxGeometry width="30" height="30" as="geometry">
            <mxRectangle width="30" height="30" as="alternateBounds" />
          </mxGeometry>
        </mxCell>
        <mxCell id="-N6aTKsf7TU79jUoc55K-210" value="description" style="shape=partialRectangle;connectable=0;fillColor=none;top=0;left=0;bottom=0;right=0;align=left;spacingLeft=6;overflow=hidden;fontSize=12;fontFamily=Helvetica;html=1;whiteSpace=wrap;labelBorderColor=none;labelBackgroundColor=none;swimlaneFillColor=default;shadow=0;swimlaneLine=1;rounded=1;strokeColor=default;" parent="-N6aTKsf7TU79jUoc55K-208" vertex="1">
          <mxGeometry x="30" width="140" height="30" as="geometry">
            <mxRectangle width="140" height="30" as="alternateBounds" />
          </mxGeometry>
        </mxCell>
        <mxCell id="-N6aTKsf7TU79jUoc55K-211" value="Text:N" style="shape=partialRectangle;connectable=0;fillColor=none;top=0;left=0;bottom=0;right=0;align=left;spacingLeft=6;overflow=hidden;fontSize=12;fontFamily=Helvetica;html=1;whiteSpace=wrap;labelBorderColor=none;labelBackgroundColor=none;swimlaneFillColor=default;shadow=0;swimlaneLine=1;rounded=1;strokeColor=default;" parent="-N6aTKsf7TU79jUoc55K-208" vertex="1">
          <mxGeometry x="170" width="190" height="30" as="geometry">
            <mxRectangle width="190" height="30" as="alternateBounds" />
          </mxGeometry>
        </mxCell>
        <mxCell id="-N6aTKsf7TU79jUoc55K-212" value="" style="shape=tableRow;horizontal=0;startSize=0;swimlaneHead=0;swimlaneBody=0;fillColor=none;collapsible=0;dropTarget=0;points=[[0,0.5],[1,0.5]];portConstraint=eastwest;top=0;left=0;right=0;bottom=0;fontSize=12;fontFamily=Helvetica;html=1;whiteSpace=wrap;labelBorderColor=none;labelBackgroundColor=none;swimlaneFillColor=default;shadow=0;swimlaneLine=1;rounded=1;strokeColor=default;" parent="-N6aTKsf7TU79jUoc55K-195" vertex="1">
          <mxGeometry y="150" width="360" height="30" as="geometry" />
        </mxCell>
        <mxCell id="-N6aTKsf7TU79jUoc55K-213" value="" style="shape=partialRectangle;connectable=0;fillColor=none;top=0;left=0;bottom=0;right=0;editable=1;overflow=hidden;fontSize=12;fontFamily=Helvetica;html=1;whiteSpace=wrap;labelBorderColor=none;labelBackgroundColor=none;swimlaneFillColor=default;shadow=0;swimlaneLine=1;rounded=1;strokeColor=default;" parent="-N6aTKsf7TU79jUoc55K-212" vertex="1">
          <mxGeometry width="30" height="30" as="geometry">
            <mxRectangle width="30" height="30" as="alternateBounds" />
          </mxGeometry>
        </mxCell>
        <mxCell id="-N6aTKsf7TU79jUoc55K-214" value="photo_url" style="shape=partialRectangle;connectable=0;fillColor=none;top=0;left=0;bottom=0;right=0;align=left;spacingLeft=6;overflow=hidden;fontSize=12;fontFamily=Helvetica;html=1;whiteSpace=wrap;labelBorderColor=none;labelBackgroundColor=none;swimlaneFillColor=default;shadow=0;swimlaneLine=1;rounded=1;strokeColor=default;" parent="-N6aTKsf7TU79jUoc55K-212" vertex="1">
          <mxGeometry x="30" width="140" height="30" as="geometry">
            <mxRectangle width="140" height="30" as="alternateBounds" />
          </mxGeometry>
        </mxCell>
        <mxCell id="-N6aTKsf7TU79jUoc55K-215" value="Text:N" style="shape=partialRectangle;connectable=0;fillColor=none;top=0;left=0;bottom=0;right=0;align=left;spacingLeft=6;overflow=hidden;fontSize=12;fontFamily=Helvetica;html=1;whiteSpace=wrap;labelBorderColor=none;labelBackgroundColor=none;swimlaneFillColor=default;shadow=0;swimlaneLine=1;rounded=1;strokeColor=default;" parent="-N6aTKsf7TU79jUoc55K-212" vertex="1">
          <mxGeometry x="170" width="190" height="30" as="geometry">
            <mxRectangle width="190" height="30" as="alternateBounds" />
          </mxGeometry>
        </mxCell>
        <mxCell id="-N6aTKsf7TU79jUoc55K-236" style="edgeStyle=orthogonalEdgeStyle;orthogonalLoop=1;jettySize=auto;html=1;exitX=0;exitY=0.5;exitDx=0;exitDy=0;entryX=1;entryY=0.5;entryDx=0;entryDy=0;fontSize=12;startSize=8;endSize=8;endArrow=ERmandOne;endFill=0;startArrow=ERmandOne;startFill=0;rounded=1;fillColor=none;strokeColor=default;fontFamily=Helvetica;" parent="1" source="-N6aTKsf7TU79jUoc55K-200" target="-N6aTKsf7TU79jUoc55K-60" edge="1">
          <mxGeometry relative="1" as="geometry" />
        </mxCell>
        <mxCell id="-N6aTKsf7TU79jUoc55K-237" value="&lt;b&gt;password_reset_tokens&lt;/b&gt;" style="shape=table;startSize=30;container=1;collapsible=1;childLayout=tableLayout;fixedRows=1;rowLines=0;fontStyle=0;align=center;resizeLast=1;fontSize=12;fontFamily=Helvetica;html=1;whiteSpace=wrap;labelBorderColor=none;labelBackgroundColor=none;shadow=0;spacing=2;swimlaneFillColor=none;rounded=1;swimlaneLine=1;fillColor=none;strokeColor=default;" parent="1" vertex="1">
          <mxGeometry x="780" y="140" width="360" height="180" as="geometry" />
        </mxCell>
        <mxCell id="-N6aTKsf7TU79jUoc55K-238" value="" style="shape=tableRow;horizontal=0;startSize=0;swimlaneHead=0;swimlaneBody=0;fillColor=none;collapsible=0;dropTarget=0;points=[[0,0.5],[1,0.5]];portConstraint=eastwest;top=0;left=0;right=0;bottom=1;fontSize=12;fontFamily=Helvetica;html=1;whiteSpace=wrap;labelBorderColor=none;labelBackgroundColor=none;swimlaneFillColor=default;shadow=0;swimlaneLine=1;rounded=1;strokeColor=default;" parent="-N6aTKsf7TU79jUoc55K-237" vertex="1">
          <mxGeometry y="30" width="360" height="30" as="geometry" />
        </mxCell>
        <mxCell id="-N6aTKsf7TU79jUoc55K-239" value="PK" style="shape=partialRectangle;connectable=0;fillColor=none;top=0;left=0;bottom=0;right=0;fontStyle=1;overflow=hidden;fontSize=12;fontFamily=Helvetica;html=1;whiteSpace=wrap;labelBorderColor=none;labelBackgroundColor=none;swimlaneFillColor=default;shadow=0;swimlaneLine=1;rounded=1;strokeColor=default;" parent="-N6aTKsf7TU79jUoc55K-238" vertex="1">
          <mxGeometry width="30" height="30" as="geometry">
            <mxRectangle width="30" height="30" as="alternateBounds" />
          </mxGeometry>
        </mxCell>
        <mxCell id="-N6aTKsf7TU79jUoc55K-240" value="id" style="shape=partialRectangle;connectable=0;fillColor=none;top=0;left=0;bottom=0;right=0;align=left;spacingLeft=6;fontStyle=5;overflow=hidden;fontSize=12;fontFamily=Helvetica;html=1;whiteSpace=wrap;labelBorderColor=none;labelBackgroundColor=none;swimlaneFillColor=default;shadow=0;swimlaneLine=1;rounded=1;strokeColor=default;" parent="-N6aTKsf7TU79jUoc55K-238" vertex="1">
          <mxGeometry x="30" width="90" height="30" as="geometry">
            <mxRectangle width="90" height="30" as="alternateBounds" />
          </mxGeometry>
        </mxCell>
        <mxCell id="-N6aTKsf7TU79jUoc55K-241" value="UUid:I:U" style="shape=partialRectangle;connectable=0;fillColor=none;top=0;left=0;bottom=0;right=0;align=left;spacingLeft=6;fontStyle=5;overflow=hidden;fontSize=12;fontFamily=Helvetica;html=1;whiteSpace=wrap;labelBorderColor=none;labelBackgroundColor=none;swimlaneFillColor=default;shadow=0;swimlaneLine=1;rounded=1;strokeColor=default;" parent="-N6aTKsf7TU79jUoc55K-238" vertex="1">
          <mxGeometry x="120" width="240" height="30" as="geometry">
            <mxRectangle width="240" height="30" as="alternateBounds" />
          </mxGeometry>
        </mxCell>
        <mxCell id="-N6aTKsf7TU79jUoc55K-242" value="" style="shape=tableRow;horizontal=0;startSize=0;swimlaneHead=0;swimlaneBody=0;fillColor=none;collapsible=0;dropTarget=0;points=[[0,0.5],[1,0.5]];portConstraint=eastwest;top=0;left=0;right=0;bottom=0;fontSize=12;fontFamily=Helvetica;html=1;whiteSpace=wrap;labelBorderColor=none;labelBackgroundColor=none;swimlaneFillColor=default;shadow=0;swimlaneLine=1;rounded=1;strokeColor=default;" parent="-N6aTKsf7TU79jUoc55K-237" vertex="1">
          <mxGeometry y="60" width="360" height="30" as="geometry" />
        </mxCell>
        <mxCell id="-N6aTKsf7TU79jUoc55K-243" value="FK" style="shape=partialRectangle;connectable=0;fillColor=none;top=0;left=0;bottom=0;right=0;editable=1;overflow=hidden;fontSize=12;fontFamily=Helvetica;html=1;whiteSpace=wrap;labelBorderColor=none;labelBackgroundColor=none;swimlaneFillColor=default;shadow=0;swimlaneLine=1;rounded=1;strokeColor=default;" parent="-N6aTKsf7TU79jUoc55K-242" vertex="1">
          <mxGeometry width="30" height="30" as="geometry">
            <mxRectangle width="30" height="30" as="alternateBounds" />
          </mxGeometry>
        </mxCell>
        <mxCell id="-N6aTKsf7TU79jUoc55K-244" value="user_id" style="shape=partialRectangle;connectable=0;fillColor=none;top=0;left=0;bottom=0;right=0;align=left;spacingLeft=6;overflow=hidden;fontSize=12;fontFamily=Helvetica;html=1;whiteSpace=wrap;labelBorderColor=none;labelBackgroundColor=none;swimlaneFillColor=default;shadow=0;swimlaneLine=1;rounded=1;strokeColor=default;" parent="-N6aTKsf7TU79jUoc55K-242" vertex="1">
          <mxGeometry x="30" width="90" height="30" as="geometry">
            <mxRectangle width="90" height="30" as="alternateBounds" />
          </mxGeometry>
        </mxCell>
        <mxCell id="-N6aTKsf7TU79jUoc55K-245" value="UUid" style="shape=partialRectangle;connectable=0;fillColor=none;top=0;left=0;bottom=0;right=0;align=left;spacingLeft=6;overflow=hidden;fontSize=12;fontFamily=Helvetica;html=1;whiteSpace=wrap;labelBorderColor=none;labelBackgroundColor=none;swimlaneFillColor=default;shadow=0;swimlaneLine=1;rounded=1;strokeColor=default;" parent="-N6aTKsf7TU79jUoc55K-242" vertex="1">
          <mxGeometry x="120" width="240" height="30" as="geometry">
            <mxRectangle width="240" height="30" as="alternateBounds" />
          </mxGeometry>
        </mxCell>
        <mxCell id="-N6aTKsf7TU79jUoc55K-246" value="" style="shape=tableRow;horizontal=0;startSize=0;swimlaneHead=0;swimlaneBody=0;fillColor=none;collapsible=0;dropTarget=0;points=[[0,0.5],[1,0.5]];portConstraint=eastwest;top=0;left=0;right=0;bottom=0;fontSize=12;fontFamily=Helvetica;html=1;whiteSpace=wrap;labelBorderColor=none;labelBackgroundColor=none;swimlaneFillColor=default;shadow=0;swimlaneLine=1;rounded=1;strokeColor=default;" parent="-N6aTKsf7TU79jUoc55K-237" vertex="1">
          <mxGeometry y="90" width="360" height="30" as="geometry" />
        </mxCell>
        <mxCell id="-N6aTKsf7TU79jUoc55K-247" value="" style="shape=partialRectangle;connectable=0;fillColor=none;top=0;left=0;bottom=0;right=0;editable=1;overflow=hidden;fontSize=12;fontFamily=Helvetica;html=1;whiteSpace=wrap;labelBorderColor=none;labelBackgroundColor=none;swimlaneFillColor=default;shadow=0;swimlaneLine=1;rounded=1;strokeColor=default;" parent="-N6aTKsf7TU79jUoc55K-246" vertex="1">
          <mxGeometry width="30" height="30" as="geometry">
            <mxRectangle width="30" height="30" as="alternateBounds" />
          </mxGeometry>
        </mxCell>
        <mxCell id="-N6aTKsf7TU79jUoc55K-248" value="token_value" style="shape=partialRectangle;connectable=0;fillColor=none;top=0;left=0;bottom=0;right=0;align=left;spacingLeft=6;overflow=hidden;fontSize=12;fontFamily=Helvetica;html=1;whiteSpace=wrap;labelBorderColor=none;labelBackgroundColor=none;swimlaneFillColor=default;shadow=0;swimlaneLine=1;rounded=1;strokeColor=default;" parent="-N6aTKsf7TU79jUoc55K-246" vertex="1">
          <mxGeometry x="30" width="90" height="30" as="geometry">
            <mxRectangle width="90" height="30" as="alternateBounds" />
          </mxGeometry>
        </mxCell>
        <mxCell id="-N6aTKsf7TU79jUoc55K-249" value="Text" style="shape=partialRectangle;connectable=0;fillColor=none;top=0;left=0;bottom=0;right=0;align=left;spacingLeft=6;overflow=hidden;fontSize=12;fontFamily=Helvetica;html=1;whiteSpace=wrap;labelBorderColor=none;labelBackgroundColor=none;swimlaneFillColor=default;shadow=0;swimlaneLine=1;rounded=1;strokeColor=default;" parent="-N6aTKsf7TU79jUoc55K-246" vertex="1">
          <mxGeometry x="120" width="240" height="30" as="geometry">
            <mxRectangle width="240" height="30" as="alternateBounds" />
          </mxGeometry>
        </mxCell>
        <mxCell id="-N6aTKsf7TU79jUoc55K-250" value="" style="shape=tableRow;horizontal=0;startSize=0;swimlaneHead=0;swimlaneBody=0;fillColor=none;collapsible=0;dropTarget=0;points=[[0,0.5],[1,0.5]];portConstraint=eastwest;top=0;left=0;right=0;bottom=0;fontSize=12;fontFamily=Helvetica;html=1;whiteSpace=wrap;labelBorderColor=none;labelBackgroundColor=none;swimlaneFillColor=default;shadow=0;swimlaneLine=1;rounded=1;strokeColor=default;" parent="-N6aTKsf7TU79jUoc55K-237" vertex="1">
          <mxGeometry y="120" width="360" height="30" as="geometry" />
        </mxCell>
        <mxCell id="-N6aTKsf7TU79jUoc55K-251" value="" style="shape=partialRectangle;connectable=0;fillColor=none;top=0;left=0;bottom=0;right=0;editable=1;overflow=hidden;fontSize=12;fontFamily=Helvetica;html=1;whiteSpace=wrap;labelBorderColor=none;labelBackgroundColor=none;swimlaneFillColor=default;shadow=0;swimlaneLine=1;rounded=1;strokeColor=default;" parent="-N6aTKsf7TU79jUoc55K-250" vertex="1">
          <mxGeometry width="30" height="30" as="geometry">
            <mxRectangle width="30" height="30" as="alternateBounds" />
          </mxGeometry>
        </mxCell>
        <mxCell id="-N6aTKsf7TU79jUoc55K-252" value="status" style="shape=partialRectangle;connectable=0;fillColor=none;top=0;left=0;bottom=0;right=0;align=left;spacingLeft=6;overflow=hidden;fontSize=12;fontFamily=Helvetica;html=1;whiteSpace=wrap;labelBorderColor=none;labelBackgroundColor=none;swimlaneFillColor=default;shadow=0;swimlaneLine=1;rounded=1;strokeColor=default;" parent="-N6aTKsf7TU79jUoc55K-250" vertex="1">
          <mxGeometry x="30" width="90" height="30" as="geometry">
            <mxRectangle width="90" height="30" as="alternateBounds" />
          </mxGeometry>
        </mxCell>
        <mxCell id="-N6aTKsf7TU79jUoc55K-253" value="Text" style="shape=partialRectangle;connectable=0;fillColor=none;top=0;left=0;bottom=0;right=0;align=left;spacingLeft=6;overflow=hidden;fontSize=12;fontFamily=Helvetica;html=1;whiteSpace=wrap;labelBorderColor=none;labelBackgroundColor=none;swimlaneFillColor=default;shadow=0;swimlaneLine=1;rounded=1;strokeColor=default;" parent="-N6aTKsf7TU79jUoc55K-250" vertex="1">
          <mxGeometry x="120" width="240" height="30" as="geometry">
            <mxRectangle width="240" height="30" as="alternateBounds" />
          </mxGeometry>
        </mxCell>
        <mxCell id="-N6aTKsf7TU79jUoc55K-254" value="" style="shape=tableRow;horizontal=0;startSize=0;swimlaneHead=0;swimlaneBody=0;fillColor=none;collapsible=0;dropTarget=0;points=[[0,0.5],[1,0.5]];portConstraint=eastwest;top=0;left=0;right=0;bottom=0;fontSize=12;fontFamily=Helvetica;html=1;whiteSpace=wrap;labelBorderColor=none;labelBackgroundColor=none;swimlaneFillColor=default;shadow=0;swimlaneLine=1;rounded=1;strokeColor=default;" parent="-N6aTKsf7TU79jUoc55K-237" vertex="1">
          <mxGeometry y="150" width="360" height="30" as="geometry" />
        </mxCell>
        <mxCell id="-N6aTKsf7TU79jUoc55K-255" value="" style="shape=partialRectangle;connectable=0;fillColor=none;top=0;left=0;bottom=0;right=0;editable=1;overflow=hidden;fontSize=12;fontFamily=Helvetica;html=1;whiteSpace=wrap;labelBorderColor=none;labelBackgroundColor=none;swimlaneFillColor=default;shadow=0;swimlaneLine=1;rounded=1;strokeColor=default;" parent="-N6aTKsf7TU79jUoc55K-254" vertex="1">
          <mxGeometry width="30" height="30" as="geometry">
            <mxRectangle width="30" height="30" as="alternateBounds" />
          </mxGeometry>
        </mxCell>
        <mxCell id="-N6aTKsf7TU79jUoc55K-256" value="expiration_at" style="shape=partialRectangle;connectable=0;fillColor=none;top=0;left=0;bottom=0;right=0;align=left;spacingLeft=6;overflow=hidden;fontSize=12;fontFamily=Helvetica;html=1;whiteSpace=wrap;labelBorderColor=none;labelBackgroundColor=none;swimlaneFillColor=default;shadow=0;swimlaneLine=1;rounded=1;strokeColor=default;" parent="-N6aTKsf7TU79jUoc55K-254" vertex="1">
          <mxGeometry x="30" width="90" height="30" as="geometry">
            <mxRectangle width="90" height="30" as="alternateBounds" />
          </mxGeometry>
        </mxCell>
        <mxCell id="-N6aTKsf7TU79jUoc55K-257" value="Timestamp With Time Zone" style="shape=partialRectangle;connectable=0;fillColor=none;top=0;left=0;bottom=0;right=0;align=left;spacingLeft=6;overflow=hidden;fontSize=12;fontFamily=Helvetica;html=1;whiteSpace=wrap;labelBorderColor=none;labelBackgroundColor=none;swimlaneFillColor=default;shadow=0;swimlaneLine=1;rounded=1;strokeColor=default;" parent="-N6aTKsf7TU79jUoc55K-254" vertex="1">
          <mxGeometry x="120" width="240" height="30" as="geometry">
            <mxRectangle width="240" height="30" as="alternateBounds" />
          </mxGeometry>
        </mxCell>
        <mxCell id="-N6aTKsf7TU79jUoc55K-279" style="edgeStyle=orthogonalEdgeStyle;rounded=1;orthogonalLoop=1;jettySize=auto;html=1;exitX=0;exitY=0.5;exitDx=0;exitDy=0;entryX=1;entryY=0.5;entryDx=0;entryDy=0;fontSize=12;startSize=8;endSize=8;endArrow=ERmandOne;endFill=0;startArrow=ERzeroToMany;startFill=0;fillColor=none;strokeColor=default;fontFamily=Helvetica;" parent="1" source="-N6aTKsf7TU79jUoc55K-242" target="-N6aTKsf7TU79jUoc55K-60" edge="1">
          <mxGeometry relative="1" as="geometry" />
        </mxCell>
        <mxCell id="-N6aTKsf7TU79jUoc55K-415" value="&lt;b&gt;verification_emails&lt;/b&gt;" style="shape=table;startSize=30;container=1;collapsible=1;childLayout=tableLayout;fixedRows=1;rowLines=0;fontStyle=0;align=center;resizeLast=1;fontSize=12;fontFamily=Helvetica;html=1;whiteSpace=wrap;labelBorderColor=none;labelBackgroundColor=none;shadow=0;spacing=2;swimlaneFillColor=none;rounded=1;swimlaneLine=1;fillColor=none;strokeColor=default;" parent="1" vertex="1">
          <mxGeometry x="-10" y="237" width="320" height="180" as="geometry" />
        </mxCell>
        <mxCell id="-N6aTKsf7TU79jUoc55K-416" value="" style="shape=tableRow;horizontal=0;startSize=0;swimlaneHead=0;swimlaneBody=0;fillColor=none;collapsible=0;dropTarget=0;points=[[0,0.5],[1,0.5]];portConstraint=eastwest;top=0;left=0;right=0;bottom=1;fontSize=12;fontFamily=Helvetica;html=1;whiteSpace=wrap;labelBorderColor=none;labelBackgroundColor=none;swimlaneFillColor=default;shadow=0;swimlaneLine=1;rounded=1;strokeColor=default;" parent="-N6aTKsf7TU79jUoc55K-415" vertex="1">
          <mxGeometry y="30" width="320" height="30" as="geometry" />
        </mxCell>
        <mxCell id="-N6aTKsf7TU79jUoc55K-417" value="PK" style="shape=partialRectangle;connectable=0;fillColor=none;top=0;left=0;bottom=0;right=0;fontStyle=1;overflow=hidden;fontSize=12;fontFamily=Helvetica;html=1;whiteSpace=wrap;labelBorderColor=none;labelBackgroundColor=none;swimlaneFillColor=default;shadow=0;swimlaneLine=1;rounded=1;strokeColor=default;" parent="-N6aTKsf7TU79jUoc55K-416" vertex="1">
          <mxGeometry width="30" height="30" as="geometry">
            <mxRectangle width="30" height="30" as="alternateBounds" />
          </mxGeometry>
        </mxCell>
        <mxCell id="-N6aTKsf7TU79jUoc55K-418" value="id" style="shape=partialRectangle;connectable=0;fillColor=none;top=0;left=0;bottom=0;right=0;align=left;spacingLeft=6;fontStyle=5;overflow=hidden;fontSize=12;fontFamily=Helvetica;html=1;whiteSpace=wrap;labelBorderColor=none;labelBackgroundColor=none;swimlaneFillColor=default;shadow=0;swimlaneLine=1;rounded=1;strokeColor=default;" parent="-N6aTKsf7TU79jUoc55K-416" vertex="1">
          <mxGeometry x="30" width="100" height="30" as="geometry">
            <mxRectangle width="100" height="30" as="alternateBounds" />
          </mxGeometry>
        </mxCell>
        <mxCell id="-N6aTKsf7TU79jUoc55K-419" value="UUid:I:U" style="shape=partialRectangle;connectable=0;fillColor=none;top=0;left=0;bottom=0;right=0;align=left;spacingLeft=6;fontStyle=5;overflow=hidden;fontSize=12;fontFamily=Helvetica;html=1;whiteSpace=wrap;labelBorderColor=none;labelBackgroundColor=none;swimlaneFillColor=default;shadow=0;swimlaneLine=1;rounded=1;strokeColor=default;" parent="-N6aTKsf7TU79jUoc55K-416" vertex="1">
          <mxGeometry x="130" width="190" height="30" as="geometry">
            <mxRectangle width="190" height="30" as="alternateBounds" />
          </mxGeometry>
        </mxCell>
        <mxCell id="-N6aTKsf7TU79jUoc55K-420" value="" style="shape=tableRow;horizontal=0;startSize=0;swimlaneHead=0;swimlaneBody=0;fillColor=none;collapsible=0;dropTarget=0;points=[[0,0.5],[1,0.5]];portConstraint=eastwest;top=0;left=0;right=0;bottom=0;fontSize=12;fontFamily=Helvetica;html=1;whiteSpace=wrap;labelBorderColor=none;labelBackgroundColor=none;swimlaneFillColor=default;shadow=0;swimlaneLine=1;rounded=1;strokeColor=default;" parent="-N6aTKsf7TU79jUoc55K-415" vertex="1">
          <mxGeometry y="60" width="320" height="30" as="geometry" />
        </mxCell>
        <mxCell id="-N6aTKsf7TU79jUoc55K-421" value="FK" style="shape=partialRectangle;connectable=0;fillColor=none;top=0;left=0;bottom=0;right=0;editable=1;overflow=hidden;fontSize=12;fontFamily=Helvetica;html=1;whiteSpace=wrap;labelBorderColor=none;labelBackgroundColor=none;swimlaneFillColor=default;shadow=0;swimlaneLine=1;rounded=1;strokeColor=default;" parent="-N6aTKsf7TU79jUoc55K-420" vertex="1">
          <mxGeometry width="30" height="30" as="geometry">
            <mxRectangle width="30" height="30" as="alternateBounds" />
          </mxGeometry>
        </mxCell>
        <mxCell id="-N6aTKsf7TU79jUoc55K-422" value="user_id" style="shape=partialRectangle;connectable=0;fillColor=none;top=0;left=0;bottom=0;right=0;align=left;spacingLeft=6;overflow=hidden;fontSize=12;fontFamily=Helvetica;html=1;whiteSpace=wrap;labelBorderColor=none;labelBackgroundColor=none;swimlaneFillColor=default;shadow=0;swimlaneLine=1;rounded=1;strokeColor=default;" parent="-N6aTKsf7TU79jUoc55K-420" vertex="1">
          <mxGeometry x="30" width="100" height="30" as="geometry">
            <mxRectangle width="100" height="30" as="alternateBounds" />
          </mxGeometry>
        </mxCell>
        <mxCell id="-N6aTKsf7TU79jUoc55K-423" value="UUid" style="shape=partialRectangle;connectable=0;fillColor=none;top=0;left=0;bottom=0;right=0;align=left;spacingLeft=6;overflow=hidden;fontSize=12;fontFamily=Helvetica;html=1;whiteSpace=wrap;labelBorderColor=none;labelBackgroundColor=none;swimlaneFillColor=default;shadow=0;swimlaneLine=1;rounded=1;strokeColor=default;" parent="-N6aTKsf7TU79jUoc55K-420" vertex="1">
          <mxGeometry x="130" width="190" height="30" as="geometry">
            <mxRectangle width="190" height="30" as="alternateBounds" />
          </mxGeometry>
        </mxCell>
        <mxCell id="-N6aTKsf7TU79jUoc55K-444" style="shape=tableRow;horizontal=0;startSize=0;swimlaneHead=0;swimlaneBody=0;fillColor=none;collapsible=0;dropTarget=0;points=[[0,0.5],[1,0.5]];portConstraint=eastwest;top=0;left=0;right=0;bottom=0;fontSize=12;fontFamily=Helvetica;html=1;whiteSpace=wrap;labelBorderColor=none;labelBackgroundColor=none;swimlaneFillColor=default;shadow=0;swimlaneLine=1;rounded=1;strokeColor=default;" parent="-N6aTKsf7TU79jUoc55K-415" vertex="1">
          <mxGeometry y="90" width="320" height="30" as="geometry" />
        </mxCell>
        <mxCell id="-N6aTKsf7TU79jUoc55K-445" style="shape=partialRectangle;connectable=0;fillColor=none;top=0;left=0;bottom=0;right=0;editable=1;overflow=hidden;fontSize=12;fontFamily=Helvetica;html=1;whiteSpace=wrap;labelBorderColor=none;labelBackgroundColor=none;swimlaneFillColor=default;shadow=0;swimlaneLine=1;rounded=1;strokeColor=default;" parent="-N6aTKsf7TU79jUoc55K-444" vertex="1">
          <mxGeometry width="30" height="30" as="geometry">
            <mxRectangle width="30" height="30" as="alternateBounds" />
          </mxGeometry>
        </mxCell>
        <mxCell id="-N6aTKsf7TU79jUoc55K-446" value="email" style="shape=partialRectangle;connectable=0;fillColor=none;top=0;left=0;bottom=0;right=0;align=left;spacingLeft=6;overflow=hidden;fontSize=12;fontFamily=Helvetica;html=1;whiteSpace=wrap;labelBorderColor=none;labelBackgroundColor=none;swimlaneFillColor=default;shadow=0;swimlaneLine=1;rounded=1;strokeColor=default;" parent="-N6aTKsf7TU79jUoc55K-444" vertex="1">
          <mxGeometry x="30" width="100" height="30" as="geometry">
            <mxRectangle width="100" height="30" as="alternateBounds" />
          </mxGeometry>
        </mxCell>
        <mxCell id="-N6aTKsf7TU79jUoc55K-447" value="Text" style="shape=partialRectangle;connectable=0;fillColor=none;top=0;left=0;bottom=0;right=0;align=left;spacingLeft=6;overflow=hidden;fontSize=12;fontFamily=Helvetica;html=1;whiteSpace=wrap;labelBorderColor=none;labelBackgroundColor=none;swimlaneFillColor=default;shadow=0;swimlaneLine=1;rounded=1;strokeColor=default;" parent="-N6aTKsf7TU79jUoc55K-444" vertex="1">
          <mxGeometry x="130" width="190" height="30" as="geometry">
            <mxRectangle width="190" height="30" as="alternateBounds" />
          </mxGeometry>
        </mxCell>
        <mxCell id="-N6aTKsf7TU79jUoc55K-424" value="" style="shape=tableRow;horizontal=0;startSize=0;swimlaneHead=0;swimlaneBody=0;fillColor=none;collapsible=0;dropTarget=0;points=[[0,0.5],[1,0.5]];portConstraint=eastwest;top=0;left=0;right=0;bottom=0;fontSize=12;fontFamily=Helvetica;html=1;whiteSpace=wrap;labelBorderColor=none;labelBackgroundColor=none;swimlaneFillColor=default;shadow=0;swimlaneLine=1;rounded=1;strokeColor=default;" parent="-N6aTKsf7TU79jUoc55K-415" vertex="1">
          <mxGeometry y="120" width="320" height="30" as="geometry" />
        </mxCell>
        <mxCell id="-N6aTKsf7TU79jUoc55K-425" value="" style="shape=partialRectangle;connectable=0;fillColor=none;top=0;left=0;bottom=0;right=0;editable=1;overflow=hidden;fontSize=12;fontFamily=Helvetica;html=1;whiteSpace=wrap;labelBorderColor=none;labelBackgroundColor=none;swimlaneFillColor=default;shadow=0;swimlaneLine=1;rounded=1;strokeColor=default;" parent="-N6aTKsf7TU79jUoc55K-424" vertex="1">
          <mxGeometry width="30" height="30" as="geometry">
            <mxRectangle width="30" height="30" as="alternateBounds" />
          </mxGeometry>
        </mxCell>
        <mxCell id="-N6aTKsf7TU79jUoc55K-426" value="token_value" style="shape=partialRectangle;connectable=0;fillColor=none;top=0;left=0;bottom=0;right=0;align=left;spacingLeft=6;overflow=hidden;fontSize=12;fontFamily=Helvetica;html=1;whiteSpace=wrap;labelBorderColor=none;labelBackgroundColor=none;swimlaneFillColor=default;shadow=0;swimlaneLine=1;rounded=1;strokeColor=default;" parent="-N6aTKsf7TU79jUoc55K-424" vertex="1">
          <mxGeometry x="30" width="100" height="30" as="geometry">
            <mxRectangle width="100" height="30" as="alternateBounds" />
          </mxGeometry>
        </mxCell>
        <mxCell id="-N6aTKsf7TU79jUoc55K-427" value="Text" style="shape=partialRectangle;connectable=0;fillColor=none;top=0;left=0;bottom=0;right=0;align=left;spacingLeft=6;overflow=hidden;fontSize=12;fontFamily=Helvetica;html=1;whiteSpace=wrap;labelBorderColor=none;labelBackgroundColor=none;swimlaneFillColor=default;shadow=0;swimlaneLine=1;rounded=1;strokeColor=default;" parent="-N6aTKsf7TU79jUoc55K-424" vertex="1">
          <mxGeometry x="130" width="190" height="30" as="geometry">
            <mxRectangle width="190" height="30" as="alternateBounds" />
          </mxGeometry>
        </mxCell>
        <mxCell id="-N6aTKsf7TU79jUoc55K-428" value="" style="shape=tableRow;horizontal=0;startSize=0;swimlaneHead=0;swimlaneBody=0;fillColor=none;collapsible=0;dropTarget=0;points=[[0,0.5],[1,0.5]];portConstraint=eastwest;top=0;left=0;right=0;bottom=0;fontSize=12;fontFamily=Helvetica;html=1;whiteSpace=wrap;labelBorderColor=none;labelBackgroundColor=none;swimlaneFillColor=default;shadow=0;swimlaneLine=1;rounded=1;strokeColor=default;" parent="-N6aTKsf7TU79jUoc55K-415" vertex="1">
          <mxGeometry y="150" width="320" height="30" as="geometry" />
        </mxCell>
        <mxCell id="-N6aTKsf7TU79jUoc55K-429" value="" style="shape=partialRectangle;connectable=0;fillColor=none;top=0;left=0;bottom=0;right=0;editable=1;overflow=hidden;fontSize=12;fontFamily=Helvetica;html=1;whiteSpace=wrap;labelBorderColor=none;labelBackgroundColor=none;swimlaneFillColor=default;shadow=0;swimlaneLine=1;rounded=1;strokeColor=default;" parent="-N6aTKsf7TU79jUoc55K-428" vertex="1">
          <mxGeometry width="30" height="30" as="geometry">
            <mxRectangle width="30" height="30" as="alternateBounds" />
          </mxGeometry>
        </mxCell>
        <mxCell id="-N6aTKsf7TU79jUoc55K-430" value="status" style="shape=partialRectangle;connectable=0;fillColor=none;top=0;left=0;bottom=0;right=0;align=left;spacingLeft=6;overflow=hidden;fontSize=12;fontFamily=Helvetica;html=1;whiteSpace=wrap;labelBorderColor=none;labelBackgroundColor=none;swimlaneFillColor=default;shadow=0;swimlaneLine=1;rounded=1;strokeColor=default;" parent="-N6aTKsf7TU79jUoc55K-428" vertex="1">
          <mxGeometry x="30" width="100" height="30" as="geometry">
            <mxRectangle width="100" height="30" as="alternateBounds" />
          </mxGeometry>
        </mxCell>
        <mxCell id="-N6aTKsf7TU79jUoc55K-431" value="Text" style="shape=partialRectangle;connectable=0;fillColor=none;top=0;left=0;bottom=0;right=0;align=left;spacingLeft=6;overflow=hidden;fontSize=12;fontFamily=Helvetica;html=1;whiteSpace=wrap;labelBorderColor=none;labelBackgroundColor=none;swimlaneFillColor=default;shadow=0;swimlaneLine=1;rounded=1;strokeColor=default;" parent="-N6aTKsf7TU79jUoc55K-428" vertex="1">
          <mxGeometry x="130" width="190" height="30" as="geometry">
            <mxRectangle width="190" height="30" as="alternateBounds" />
          </mxGeometry>
        </mxCell>
        <mxCell id="-N6aTKsf7TU79jUoc55K-448" style="edgeStyle=elbowEdgeStyle;rounded=1;orthogonalLoop=1;jettySize=auto;html=1;exitX=1;exitY=0.5;exitDx=0;exitDy=0;entryX=0;entryY=0.5;entryDx=0;entryDy=0;fontSize=12;startSize=8;endSize=8;endArrow=ERmandOne;endFill=0;startArrow=ERoneToMany;startFill=0;fillColor=none;strokeColor=default;fontFamily=Helvetica;" parent="1" source="-N6aTKsf7TU79jUoc55K-420" target="-N6aTKsf7TU79jUoc55K-60" edge="1">
          <mxGeometry relative="1" as="geometry" />
        </mxCell>
        <mxCell id="KgpJdoW0dtw73jvPoixU-57" value="&lt;b&gt;*&lt;/b&gt;&lt;b style=&quot;border-color: var(--border-color);&quot;&gt;audit columns&lt;/b&gt;&lt;b&gt;*&lt;/b&gt;" style="shape=table;startSize=30;container=1;collapsible=1;childLayout=tableLayout;fixedRows=1;rowLines=0;fontStyle=0;align=center;resizeLast=1;fontSize=12;fontFamily=Inter;html=1;whiteSpace=wrap;labelBorderColor=none;labelBackgroundColor=none;shadow=0;spacing=2;swimlaneFillColor=none;rounded=1;swimlaneLine=1;fillColor=none;strokeColor=default;fontSource=https%3A%2F%2Ffonts.googleapis.com%2Fcss%3Ffamily%3DInter;" parent="1" vertex="1">
          <mxGeometry x="350" y="570" width="360" height="180" as="geometry" />
        </mxCell>
        <mxCell id="KgpJdoW0dtw73jvPoixU-58" value="" style="shape=tableRow;horizontal=0;startSize=0;swimlaneHead=0;swimlaneBody=0;fillColor=none;collapsible=0;dropTarget=0;points=[[0,0.5],[1,0.5]];portConstraint=eastwest;top=0;left=0;right=0;bottom=1;fontSize=12;fontFamily=Inter;html=1;whiteSpace=wrap;labelBorderColor=none;labelBackgroundColor=none;swimlaneFillColor=default;shadow=0;swimlaneLine=1;rounded=1;strokeColor=default;fontSource=https%3A%2F%2Ffonts.googleapis.com%2Fcss%3Ffamily%3DInter;" parent="KgpJdoW0dtw73jvPoixU-57" vertex="1">
          <mxGeometry y="30" width="360" height="30" as="geometry" />
        </mxCell>
        <mxCell id="KgpJdoW0dtw73jvPoixU-59" value="PK" style="shape=partialRectangle;connectable=0;fillColor=none;top=0;left=0;bottom=0;right=0;fontStyle=1;overflow=hidden;fontSize=12;fontFamily=Inter;html=1;whiteSpace=wrap;labelBorderColor=none;labelBackgroundColor=none;swimlaneFillColor=default;shadow=0;swimlaneLine=1;rounded=1;strokeColor=default;fontSource=https%3A%2F%2Ffonts.googleapis.com%2Fcss%3Ffamily%3DInter;" parent="KgpJdoW0dtw73jvPoixU-58" vertex="1">
          <mxGeometry width="40.000000000000455" height="30" as="geometry">
            <mxRectangle width="40.000000000000455" height="30" as="alternateBounds" />
          </mxGeometry>
        </mxCell>
        <mxCell id="KgpJdoW0dtw73jvPoixU-60" value="id" style="shape=partialRectangle;connectable=0;fillColor=none;top=0;left=0;bottom=0;right=0;align=left;spacingLeft=6;fontStyle=5;overflow=hidden;fontSize=12;fontFamily=Inter;html=1;whiteSpace=wrap;labelBorderColor=none;labelBackgroundColor=none;swimlaneFillColor=default;shadow=0;swimlaneLine=1;rounded=1;strokeColor=default;fontSource=https%3A%2F%2Ffonts.googleapis.com%2Fcss%3Ffamily%3DInter;" parent="KgpJdoW0dtw73jvPoixU-58" vertex="1">
          <mxGeometry x="40.000000000000455" width="139.99999999999955" height="30" as="geometry">
            <mxRectangle width="139.99999999999955" height="30" as="alternateBounds" />
          </mxGeometry>
        </mxCell>
        <mxCell id="KgpJdoW0dtw73jvPoixU-61" value="UUid:I:U" style="shape=partialRectangle;connectable=0;fillColor=none;top=0;left=0;bottom=0;right=0;align=left;spacingLeft=6;fontStyle=5;overflow=hidden;fontSize=12;fontFamily=Inter;html=1;whiteSpace=wrap;labelBorderColor=none;labelBackgroundColor=none;swimlaneFillColor=default;shadow=0;swimlaneLine=1;rounded=1;strokeColor=default;fontSource=https%3A%2F%2Ffonts.googleapis.com%2Fcss%3Ffamily%3DInter;" parent="KgpJdoW0dtw73jvPoixU-58" vertex="1">
          <mxGeometry x="180" width="180" height="30" as="geometry">
            <mxRectangle width="180" height="30" as="alternateBounds" />
          </mxGeometry>
        </mxCell>
        <mxCell id="KgpJdoW0dtw73jvPoixU-62" value="" style="shape=tableRow;horizontal=0;startSize=0;swimlaneHead=0;swimlaneBody=0;fillColor=none;collapsible=0;dropTarget=0;points=[[0,0.5],[1,0.5]];portConstraint=eastwest;top=0;left=0;right=0;bottom=0;fontSize=12;fontFamily=Inter;html=1;whiteSpace=wrap;labelBorderColor=none;labelBackgroundColor=none;swimlaneFillColor=default;shadow=0;swimlaneLine=1;rounded=1;strokeColor=default;fontSource=https%3A%2F%2Ffonts.googleapis.com%2Fcss%3Ffamily%3DInter;" parent="KgpJdoW0dtw73jvPoixU-57" vertex="1">
          <mxGeometry y="60" width="360" height="30" as="geometry" />
        </mxCell>
        <mxCell id="KgpJdoW0dtw73jvPoixU-63" value="" style="shape=partialRectangle;connectable=0;fillColor=none;top=0;left=0;bottom=0;right=0;editable=1;overflow=hidden;fontSize=12;fontFamily=Inter;html=1;whiteSpace=wrap;labelBorderColor=none;labelBackgroundColor=none;swimlaneFillColor=default;shadow=0;swimlaneLine=1;rounded=1;strokeColor=default;fontSource=https%3A%2F%2Ffonts.googleapis.com%2Fcss%3Ffamily%3DInter;" parent="KgpJdoW0dtw73jvPoixU-62" vertex="1">
          <mxGeometry width="40.000000000000455" height="30" as="geometry">
            <mxRectangle width="40.000000000000455" height="30" as="alternateBounds" />
          </mxGeometry>
        </mxCell>
        <mxCell id="KgpJdoW0dtw73jvPoixU-64" value="created_at" style="shape=partialRectangle;connectable=0;fillColor=none;top=0;left=0;bottom=0;right=0;align=left;spacingLeft=6;overflow=hidden;fontSize=12;fontFamily=Inter;html=1;whiteSpace=wrap;labelBorderColor=none;labelBackgroundColor=none;swimlaneFillColor=default;shadow=0;swimlaneLine=1;rounded=1;strokeColor=default;fontSource=https%3A%2F%2Ffonts.googleapis.com%2Fcss%3Ffamily%3DInter;" parent="KgpJdoW0dtw73jvPoixU-62" vertex="1">
          <mxGeometry x="40.000000000000455" width="139.99999999999955" height="30" as="geometry">
            <mxRectangle width="139.99999999999955" height="30" as="alternateBounds" />
          </mxGeometry>
        </mxCell>
        <mxCell id="KgpJdoW0dtw73jvPoixU-65" value="Timestamp With Time Zone" style="shape=partialRectangle;connectable=0;fillColor=none;top=0;left=0;bottom=0;right=0;align=left;spacingLeft=6;overflow=hidden;fontSize=12;fontFamily=Inter;html=1;whiteSpace=wrap;labelBorderColor=none;labelBackgroundColor=none;swimlaneFillColor=default;shadow=0;swimlaneLine=1;rounded=1;strokeColor=default;fontSource=https%3A%2F%2Ffonts.googleapis.com%2Fcss%3Ffamily%3DInter;" parent="KgpJdoW0dtw73jvPoixU-62" vertex="1">
          <mxGeometry x="180" width="180" height="30" as="geometry">
            <mxRectangle width="180" height="30" as="alternateBounds" />
          </mxGeometry>
        </mxCell>
        <mxCell id="KgpJdoW0dtw73jvPoixU-66" value="" style="shape=tableRow;horizontal=0;startSize=0;swimlaneHead=0;swimlaneBody=0;fillColor=none;collapsible=0;dropTarget=0;points=[[0,0.5],[1,0.5]];portConstraint=eastwest;top=0;left=0;right=0;bottom=0;fontSize=12;fontFamily=Inter;html=1;whiteSpace=wrap;labelBorderColor=none;labelBackgroundColor=none;swimlaneFillColor=default;shadow=0;swimlaneLine=1;rounded=1;strokeColor=default;fontSource=https%3A%2F%2Ffonts.googleapis.com%2Fcss%3Ffamily%3DInter;" parent="KgpJdoW0dtw73jvPoixU-57" vertex="1">
          <mxGeometry y="90" width="360" height="30" as="geometry" />
        </mxCell>
        <mxCell id="KgpJdoW0dtw73jvPoixU-67" value="" style="shape=partialRectangle;connectable=0;fillColor=none;top=0;left=0;bottom=0;right=0;editable=1;overflow=hidden;fontSize=12;fontFamily=Inter;html=1;whiteSpace=wrap;labelBorderColor=none;labelBackgroundColor=none;swimlaneFillColor=default;shadow=0;swimlaneLine=1;perimeterSpacing=0;rounded=1;strokeColor=default;fontSource=https%3A%2F%2Ffonts.googleapis.com%2Fcss%3Ffamily%3DInter;" parent="KgpJdoW0dtw73jvPoixU-66" vertex="1">
          <mxGeometry width="40.000000000000455" height="30" as="geometry">
            <mxRectangle width="40.000000000000455" height="30" as="alternateBounds" />
          </mxGeometry>
        </mxCell>
        <mxCell id="KgpJdoW0dtw73jvPoixU-68" value="updated_at" style="shape=partialRectangle;connectable=0;fillColor=none;top=0;left=0;bottom=0;right=0;align=left;spacingLeft=6;overflow=hidden;fontSize=12;fontFamily=Inter;html=1;whiteSpace=wrap;labelBorderColor=none;labelBackgroundColor=none;swimlaneFillColor=default;shadow=0;swimlaneLine=1;perimeterSpacing=0;rounded=1;strokeColor=default;fontSource=https%3A%2F%2Ffonts.googleapis.com%2Fcss%3Ffamily%3DInter;" parent="KgpJdoW0dtw73jvPoixU-66" vertex="1">
          <mxGeometry x="40.000000000000455" width="139.99999999999955" height="30" as="geometry">
            <mxRectangle width="139.99999999999955" height="30" as="alternateBounds" />
          </mxGeometry>
        </mxCell>
        <mxCell id="KgpJdoW0dtw73jvPoixU-69" value="Timestamp With Time Zone:N" style="shape=partialRectangle;connectable=0;fillColor=none;top=0;left=0;bottom=0;right=0;align=left;spacingLeft=6;overflow=hidden;fontSize=12;fontFamily=Inter;html=1;whiteSpace=wrap;labelBorderColor=none;labelBackgroundColor=none;swimlaneFillColor=default;shadow=0;swimlaneLine=1;perimeterSpacing=0;rounded=1;strokeColor=default;fontSource=https%3A%2F%2Ffonts.googleapis.com%2Fcss%3Ffamily%3DInter;" parent="KgpJdoW0dtw73jvPoixU-66" vertex="1">
          <mxGeometry x="180" width="180" height="30" as="geometry">
            <mxRectangle width="180" height="30" as="alternateBounds" />
          </mxGeometry>
        </mxCell>
        <mxCell id="KgpJdoW0dtw73jvPoixU-70" style="shape=tableRow;horizontal=0;startSize=0;swimlaneHead=0;swimlaneBody=0;fillColor=none;collapsible=0;dropTarget=0;points=[[0,0.5],[1,0.5]];portConstraint=eastwest;top=0;left=0;right=0;bottom=0;fontSize=12;fontFamily=Inter;html=1;whiteSpace=wrap;labelBorderColor=none;labelBackgroundColor=none;swimlaneFillColor=default;shadow=0;swimlaneLine=1;rounded=1;strokeColor=default;fontSource=https%3A%2F%2Ffonts.googleapis.com%2Fcss%3Ffamily%3DInter;" parent="KgpJdoW0dtw73jvPoixU-57" vertex="1">
          <mxGeometry y="120" width="360" height="30" as="geometry" />
        </mxCell>
        <mxCell id="KgpJdoW0dtw73jvPoixU-71" style="shape=partialRectangle;connectable=0;fillColor=none;top=0;left=0;bottom=0;right=0;editable=1;overflow=hidden;fontSize=12;fontFamily=Inter;html=1;whiteSpace=wrap;labelBorderColor=none;labelBackgroundColor=none;swimlaneFillColor=default;shadow=0;swimlaneLine=1;perimeterSpacing=0;rounded=1;strokeColor=default;fontSource=https%3A%2F%2Ffonts.googleapis.com%2Fcss%3Ffamily%3DInter;" parent="KgpJdoW0dtw73jvPoixU-70" vertex="1">
          <mxGeometry width="40.000000000000455" height="30" as="geometry">
            <mxRectangle width="40.000000000000455" height="30" as="alternateBounds" />
          </mxGeometry>
        </mxCell>
        <mxCell id="KgpJdoW0dtw73jvPoixU-72" value="deleted_at" style="shape=partialRectangle;connectable=0;fillColor=none;top=0;left=0;bottom=0;right=0;align=left;spacingLeft=6;overflow=hidden;fontSize=12;fontFamily=Inter;html=1;whiteSpace=wrap;labelBorderColor=none;labelBackgroundColor=none;swimlaneFillColor=default;shadow=0;swimlaneLine=1;perimeterSpacing=0;rounded=1;strokeColor=default;fontSource=https%3A%2F%2Ffonts.googleapis.com%2Fcss%3Ffamily%3DInter;" parent="KgpJdoW0dtw73jvPoixU-70" vertex="1">
          <mxGeometry x="40.000000000000455" width="139.99999999999955" height="30" as="geometry">
            <mxRectangle width="139.99999999999955" height="30" as="alternateBounds" />
          </mxGeometry>
        </mxCell>
        <mxCell id="KgpJdoW0dtw73jvPoixU-73" value="Timestamp With Time Zone:N" style="shape=partialRectangle;connectable=0;fillColor=none;top=0;left=0;bottom=0;right=0;align=left;spacingLeft=6;overflow=hidden;fontSize=12;fontFamily=Inter;html=1;whiteSpace=wrap;labelBorderColor=none;labelBackgroundColor=none;swimlaneFillColor=default;shadow=0;swimlaneLine=1;perimeterSpacing=0;rounded=1;strokeColor=default;fontSource=https%3A%2F%2Ffonts.googleapis.com%2Fcss%3Ffamily%3DInter;" parent="KgpJdoW0dtw73jvPoixU-70" vertex="1">
          <mxGeometry x="180" width="180" height="30" as="geometry">
            <mxRectangle width="180" height="30" as="alternateBounds" />
          </mxGeometry>
        </mxCell>
        <mxCell id="KgpJdoW0dtw73jvPoixU-74" style="shape=tableRow;horizontal=0;startSize=0;swimlaneHead=0;swimlaneBody=0;fillColor=none;collapsible=0;dropTarget=0;points=[[0,0.5],[1,0.5]];portConstraint=eastwest;top=0;left=0;right=0;bottom=0;fontSize=12;fontFamily=Inter;html=1;whiteSpace=wrap;labelBorderColor=none;labelBackgroundColor=none;swimlaneFillColor=default;shadow=0;swimlaneLine=1;rounded=1;strokeColor=default;fontSource=https%3A%2F%2Ffonts.googleapis.com%2Fcss%3Ffamily%3DInter;" parent="KgpJdoW0dtw73jvPoixU-57" vertex="1">
          <mxGeometry y="150" width="360" height="30" as="geometry" />
        </mxCell>
        <mxCell id="KgpJdoW0dtw73jvPoixU-75" style="shape=partialRectangle;connectable=0;fillColor=none;top=0;left=0;bottom=0;right=0;editable=1;overflow=hidden;fontSize=12;fontFamily=Inter;html=1;whiteSpace=wrap;labelBorderColor=none;labelBackgroundColor=none;swimlaneFillColor=default;shadow=0;swimlaneLine=1;perimeterSpacing=0;rounded=1;strokeColor=default;fontSource=https%3A%2F%2Ffonts.googleapis.com%2Fcss%3Ffamily%3DInter;" parent="KgpJdoW0dtw73jvPoixU-74" vertex="1">
          <mxGeometry width="40.000000000000455" height="30" as="geometry">
            <mxRectangle width="40.000000000000455" height="30" as="alternateBounds" />
          </mxGeometry>
        </mxCell>
        <mxCell id="KgpJdoW0dtw73jvPoixU-76" value="version" style="shape=partialRectangle;connectable=0;fillColor=none;top=0;left=0;bottom=0;right=0;align=left;spacingLeft=6;overflow=hidden;fontSize=12;fontFamily=Inter;html=1;whiteSpace=wrap;labelBorderColor=none;labelBackgroundColor=none;swimlaneFillColor=default;shadow=0;swimlaneLine=1;perimeterSpacing=0;rounded=1;strokeColor=default;fontSource=https%3A%2F%2Ffonts.googleapis.com%2Fcss%3Ffamily%3DInter;" parent="KgpJdoW0dtw73jvPoixU-74" vertex="1">
          <mxGeometry x="40.000000000000455" width="139.99999999999955" height="30" as="geometry">
            <mxRectangle width="139.99999999999955" height="30" as="alternateBounds" />
          </mxGeometry>
        </mxCell>
        <mxCell id="KgpJdoW0dtw73jvPoixU-77" value="Integer" style="shape=partialRectangle;connectable=0;fillColor=none;top=0;left=0;bottom=0;right=0;align=left;spacingLeft=6;overflow=hidden;fontSize=12;fontFamily=Inter;html=1;whiteSpace=wrap;labelBorderColor=none;labelBackgroundColor=none;swimlaneFillColor=default;shadow=0;swimlaneLine=1;perimeterSpacing=0;rounded=1;strokeColor=default;fontSource=https%3A%2F%2Ffonts.googleapis.com%2Fcss%3Ffamily%3DInter;" parent="KgpJdoW0dtw73jvPoixU-74" vertex="1">
          <mxGeometry x="180" width="180" height="30" as="geometry">
            <mxRectangle width="180" height="30" as="alternateBounds" />
          </mxGeometry>
        </mxCell>
      </root>
    </mxGraphModel>
  </diagram>
</mxfile>
